<?xml version="1.0" encoding="UTF-8" standalone="no"?>
<!DOCTYPE svg PUBLIC "-//W3C//DTD SVG 1.1//EN"
 "http://www.w3.org/Graphics/SVG/1.1/DTD/svg11.dtd">
<!-- Generated by graphviz version 2.38.0 (20140413.2041)
 -->
<!-- Title: G Pages: 1 -->
<svg width="248pt" height="377pt"
 viewBox="0.00 0.00 248.00 377.00" xmlns="http://www.w3.org/2000/svg" xmlns:xlink="http://www.w3.org/1999/xlink">
<g id="graph0" class="graph" transform="scale(1 1) rotate(0) translate(4 373)">
<title>G</title>
<polygon fill="white" stroke="none" points="-4,4 -4,-373 244,-373 244,4 -4,4"/>
<!-- 139637875199120 -->
<g id="node1" class="node"><title>139637875199120</title>
<polygon fill="none" stroke="black" points="10,-249.5 10,-295.5 230,-295.5 230,-249.5 10,-249.5"/>
<text text-anchor="middle" x="58" y="-268.8" font-family="Times,serif" font-size="14.00">flatten: Flatten</text>
<polyline fill="none" stroke="black" points="106,-249.5 106,-295.5 "/>
<text text-anchor="middle" x="133.5" y="-280.3" font-family="Times,serif" font-size="14.00">input:</text>
<polyline fill="none" stroke="black" points="106,-272.5 161,-272.5 "/>
<text text-anchor="middle" x="133.5" y="-257.3" font-family="Times,serif" font-size="14.00">output:</text>
<polyline fill="none" stroke="black" points="161,-249.5 161,-295.5 "/>
<text text-anchor="middle" x="195.5" y="-280.3" font-family="Times,serif" font-size="14.00">(None, 6)</text>
<polyline fill="none" stroke="black" points="161,-272.5 230,-272.5 "/>
<text text-anchor="middle" x="195.5" y="-257.3" font-family="Times,serif" font-size="14.00">(None, 6)</text>
</g>
<!-- 139637874742736 -->
<g id="node2" class="node"><title>139637874742736</title>
<polygon fill="none" stroke="black" points="6.5,-166.5 6.5,-212.5 233.5,-212.5 233.5,-166.5 6.5,-166.5"/>
<text text-anchor="middle" x="51" y="-185.8" font-family="Times,serif" font-size="14.00">dense: Dense</text>
<polyline fill="none" stroke="black" points="95.5,-166.5 95.5,-212.5 "/>
<text text-anchor="middle" x="123" y="-197.3" font-family="Times,serif" font-size="14.00">input:</text>
<polyline fill="none" stroke="black" points="95.5,-189.5 150.5,-189.5 "/>
<text text-anchor="middle" x="123" y="-174.3" font-family="Times,serif" font-size="14.00">output:</text>
<polyline fill="none" stroke="black" points="150.5,-166.5 150.5,-212.5 "/>
<text text-anchor="middle" x="192" y="-197.3" font-family="Times,serif" font-size="14.00">(None, 6)</text>
<polyline fill="none" stroke="black" points="150.5,-189.5 233.5,-189.5 "/>
<text text-anchor="middle" x="192" y="-174.3" font-family="Times,serif" font-size="14.00">(None, 240)</text>
</g>
<!-- 139637875199120&#45;&gt;139637874742736 -->
<g id="edge2" class="edge"><title>139637875199120&#45;&gt;139637874742736</title>
<path fill="none" stroke="black" d="M120,-249.366C120,-241.152 120,-231.658 120,-222.725"/>
<polygon fill="black" stroke="black" points="123.5,-222.607 120,-212.607 116.5,-222.607 123.5,-222.607"/>
</g>
<!-- 139637874742416 -->
<g id="node3" class="node"><title>139637874742416</title>
<polygon fill="none" stroke="black" points="-1.42109e-14,-83.5 -1.42109e-14,-129.5 240,-129.5 240,-83.5 -1.42109e-14,-83.5"/>
<text text-anchor="middle" x="51" y="-102.8" font-family="Times,serif" font-size="14.00">dense_1: Dense</text>
<polyline fill="none" stroke="black" points="102,-83.5 102,-129.5 "/>
<text text-anchor="middle" x="129.5" y="-114.3" font-family="Times,serif" font-size="14.00">input:</text>
<polyline fill="none" stroke="black" points="102,-106.5 157,-106.5 "/>
<text text-anchor="middle" x="129.5" y="-91.3" font-family="Times,serif" font-size="14.00">output:</text>
<polyline fill="none" stroke="black" points="157,-83.5 157,-129.5 "/>
<text text-anchor="middle" x="198.5" y="-114.3" font-family="Times,serif" font-size="14.00">(None, 240)</text>
<polyline fill="none" stroke="black" points="157,-106.5 240,-106.5 "/>
<text text-anchor="middle" x="198.5" y="-91.3" font-family="Times,serif" font-size="14.00">(None, 128)</text>
</g>
<!-- 139637874742736&#45;&gt;139637874742416 -->
<g id="edge3" class="edge"><title>139637874742736&#45;&gt;139637874742416</title>
<path fill="none" stroke="black" d="M120,-166.366C120,-158.152 120,-148.658 120,-139.725"/>
<polygon fill="black" stroke="black" points="123.5,-139.607 120,-129.607 116.5,-139.607 123.5,-139.607"/>
</g>
<!-- 139637874713104 -->
<g id="node4" class="node"><title>139637874713104</title>
<polygon fill="none" stroke="black" points="-1.42109e-14,-0.5 -1.42109e-14,-46.5 240,-46.5 240,-0.5 -1.42109e-14,-0.5"/>
<text text-anchor="middle" x="51" y="-19.8" font-family="Times,serif" font-size="14.00">dense_2: Dense</text>
<polyline fill="none" stroke="black" points="102,-0.5 102,-46.5 "/>
<text text-anchor="middle" x="129.5" y="-31.3" font-family="Times,serif" font-size="14.00">input:</text>
<polyline fill="none" stroke="black" points="102,-23.5 157,-23.5 "/>
<text text-anchor="middle" x="129.5" y="-8.3" font-family="Times,serif" font-size="14.00">output:</text>
<polyline fill="none" stroke="black" points="157,-0.5 157,-46.5 "/>
<text text-anchor="middle" x="198.5" y="-31.3" font-family="Times,serif" font-size="14.00">(None, 128)</text>
<polyline fill="none" stroke="black" points="157,-23.5 240,-23.5 "/>
<text text-anchor="middle" x="198.5" y="-8.3" font-family="Times,serif" font-size="14.00">(None, 149)</text>
</g>
<!-- 139637874742416&#45;&gt;139637874713104 -->
<g id="edge4" class="edge"><title>139637874742416&#45;&gt;139637874713104</title>
<path fill="none" stroke="black" d="M120,-83.3664C120,-75.1516 120,-65.6579 120,-56.7252"/>
<polygon fill="black" stroke="black" points="123.5,-56.6068 120,-46.6068 116.5,-56.6069 123.5,-56.6068"/>
</g>
<!-- 139637875198800 -->
<g id="node5" class="node"><title>139637875198800</title>
<polygon fill="none" stroke="black" points="61,-332.5 61,-368.5 179,-368.5 179,-332.5 61,-332.5"/>
<text text-anchor="middle" x="120" y="-346.8" font-family="Times,serif" font-size="14.00">139637875198800</text>
</g>
<!-- 139637875198800&#45;&gt;139637875199120 -->
<g id="edge1" class="edge"><title>139637875198800&#45;&gt;139637875199120</title>
<path fill="none" stroke="black" d="M120,-332.254C120,-324.363 120,-314.749 120,-305.602"/>
<polygon fill="black" stroke="black" points="123.5,-305.591 120,-295.591 116.5,-305.591 123.5,-305.591"/>
</g>
</g>
</svg>
